<?xml version="1.0" encoding="UTF-8"?>
<svg version="1.1" xmlns="http://www.w3.org/2000/svg" width="500" height="500">
<path d="M0 0 C165 0 330 0 500 0 C500 165 500 330 500 500 C335 500 170 500 0 500 C0 335 0 170 0 0 Z " fill="#E3E1DC" transform="translate(0,0)"/>
<path d="M0 0 C19.47 0 38.94 0 59 0 C63 16 63 16 63 20 C63.66 20 64.32 20 65 20 C65.27880005 21.2375 65.27880005 21.2375 65.56323242 22.5 C66.43127144 26.33488671 67.30641058 30.16809436 68.1875 34 C68.34551086 34.68750336 68.50352173 35.37500671 68.6663208 36.08334351 C70.47407388 43.91177516 72.33370066 51.68282192 74.875 59.3125 C76.64269592 64.62717921 77.70046504 69.40868073 78 75 C78.66 75 79.32 75 80 75 C80.02868164 74.4325708 80.05736328 73.8651416 80.08691406 73.28051758 C80.63668469 65.74820938 82.5712917 58.89441681 84.75 51.6875 C87.51580675 42.29522984 90.11296545 32.91368635 92.27636719 23.36401367 C93.98743827 15.83674553 96.00352316 8.48678814 98 1 C116.81 1 135.62 1 155 1 C155 43.57 155 86.14 155 130 C141.47 130 127.94 130 114 130 C113.97889751 122.08656754 113.95887769 114.17323994 113.94824982 106.25980377 C113.94301903 102.57284818 113.93605699 98.88591644 113.92456055 95.19897461 C113.82946594 63.91312361 113.82946594 63.91312361 115 50 C110.99221736 62.20350934 107.7457199 74.52832018 104.6875 87 C104.22896244 88.85427721 103.7699805 90.7084446 103.31054688 92.5625 C102.20192397 97.04042193 101.09925644 101.51976999 100 106 C99.34 106 98.68 106 98 106 C97.67 108.64 97.34 111.28 97 114 C95.68 119.28 94.36 124.56 93 130 C81.78 130 70.56 130 59 130 C57.845 125.4625 56.69 120.925 55.5 116.25 C55.13455078 114.82461914 54.76910156 113.39923828 54.39257812 111.93066406 C54.10833984 110.80370117 53.82410156 109.67673828 53.53125 108.515625 C53.23798828 107.36352539 52.94472656 106.21142578 52.64257812 105.02441406 C52 102 52 102 52 98 C51.34 98 50.68 98 50 98 C40.23681641 58.94726562 40.23681641 58.94726562 39.60577393 56.41137695 C39.20914124 54.83251912 38.8053932 53.25542766 38.39373779 51.68041992 C37.62051039 48.70152211 37 46.09234285 37 43 C36.34 43 35.68 43 35 43 C35.30694459 46.10474234 35.621514 49.20866586 35.9375 52.3125 C36.06801758 53.63411133 36.06801758 53.63411133 36.20117188 54.98242188 C36.33168945 56.25375977 36.33168945 56.25375977 36.46484375 57.55078125 C36.543396 58.33106689 36.62194824 59.11135254 36.70288086 59.9152832 C36.96337997 62.18882001 36.96337997 62.18882001 38 65 C38.08932308 67.10090021 38.11759269 69.20457877 38.11352539 71.30737305 C38.11344986 72.60849533 38.11337433 73.90961761 38.11329651 75.25016785 C38.10818985 76.6706852 38.10297385 78.09120217 38.09765625 79.51171875 C38.09579091 80.96474662 38.09436756 82.41777511 38.09336853 83.87080383 C38.08955246 87.69306172 38.07972993 91.51528155 38.06866455 95.33752441 C38.05663124 99.92471785 38.05204385 104.51192402 38.04621124 109.09912872 C38.0365177 116.06611228 38.0173548 123.03301233 38 130 C25.46 130 12.92 130 0 130 C0 87.1 0 44.2 0 0 Z " fill="#DB4B2C" transform="translate(20,198)"/>
<path d="M0 0 C0.78571884 -0.00570007 1.57143768 -0.01140015 2.38096619 -0.01727295 C4.04261949 -0.02669587 5.70429126 -0.03324614 7.3659668 -0.03710938 C9.86997527 -0.04675037 12.3731392 -0.07777179 14.87695312 -0.109375 C23.95411878 -0.16764666 32.12213752 0.32220825 40.83984375 3.203125 C40.83984375 3.863125 40.83984375 4.523125 40.83984375 5.203125 C41.71640625 5.31140625 42.59296875 5.4196875 43.49609375 5.53125 C55.69285573 7.98200124 64.99612522 17.34760472 71.83984375 27.203125 C76.15369039 34.50775706 77.83382408 41.95903457 79.26171875 50.2109375 C79.52540281 53.07539288 79.52540281 53.07539288 80.83984375 54.203125 C80.92751487 56.27574576 80.94680248 58.35132794 80.9375 60.42578125 C80.93427734 61.68583984 80.93105469 62.94589844 80.92773438 64.24414062 C80.91937778 65.58463609 80.91091282 66.92513088 80.90234375 68.265625 C80.89733035 69.61002442 80.89276717 70.9544256 80.88867188 72.29882812 C80.87683863 75.60030441 80.86035346 78.90169303 80.83984375 82.203125 C80.17984375 82.203125 79.51984375 82.203125 78.83984375 82.203125 C78.77796875 83.234375 78.71609375 84.265625 78.65234375 85.328125 C76.85019097 98.77313324 70.63497873 111.1905984 59.81640625 119.53515625 C56.57298906 121.62507467 53.28817898 123.47895739 49.83984375 125.203125 C51.15757579 128.21141082 52.44385594 129.94308872 55.02734375 131.953125 C58.33944132 134.68033471 61.0326003 137.63983584 63.796875 140.91015625 C66.79687342 144.27726728 70.02910888 147.40268604 73.28417969 150.5222168 C74.50563783 151.71311712 75.67742899 152.95452759 76.83984375 154.203125 C76.83984375 154.863125 76.83984375 155.523125 76.83984375 156.203125 C70.29938842 156.63949295 63.762745 156.93389126 57.2109375 157.13696289 C54.99076265 157.22169871 52.77151477 157.33715922 50.5546875 157.4855957 C31.18261373 158.74880178 31.18261373 158.74880178 23.84765625 152.51904297 C19.72270893 148.41854332 16.20701731 143.93482758 12.83984375 139.203125 C9.96723542 134.97607834 9.96723542 134.97607834 5.29296875 133.41796875 C3.89326541 133.30708621 2.49192414 133.2156913 1.08984375 133.140625 C-10.85691952 132.10418908 -23.1530237 130.25702482 -33.16015625 123.203125 C-33.9903125 122.62691406 -34.82046875 122.05070312 -35.67578125 121.45703125 C-41.89316057 116.83122657 -46.20937334 111.84586293 -50.16015625 105.203125 C-50.70671875 104.29820312 -51.25328125 103.39328125 -51.81640625 102.4609375 C-61.34815365 85.21968852 -61.91556237 61.75615555 -56.99023438 42.93310547 C-52.66333715 28.08924315 -44.11251677 16.53662306 -31.1328125 8.09375 C-29.16015625 7.203125 -29.16015625 7.203125 -25.16015625 7.203125 C-25.16015625 6.543125 -25.16015625 5.883125 -25.16015625 5.203125 C-23.26562404 4.55348477 -21.36946976 3.90857385 -19.47265625 3.265625 C-17.88904297 2.72615234 -17.88904297 2.72615234 -16.2734375 2.17578125 C-10.80019937 0.46582354 -5.71775661 0.03257871 0 0 Z " fill="#DB4B2D" transform="translate(358.16015625,196.796875)"/>
<path d="M0 0 C6.437876 5.42002999 9.92757108 9.65092867 12.08984375 17.80859375 C12.58484375 24.24359375 12.58484375 24.24359375 13.08984375 30.80859375 C0.87984375 30.80859375 -11.33015625 30.80859375 -23.91015625 30.80859375 C-24.57015625 27.50859375 -25.23015625 24.20859375 -25.91015625 20.80859375 C-28.19635287 17.78491435 -29.32009214 17.00528179 -32.91015625 15.80859375 C-32.91015625 15.14859375 -32.91015625 14.48859375 -32.91015625 13.80859375 C-44.64209287 13.82304567 -44.64209287 13.82304567 -54.91015625 18.80859375 C-60.2309964 24.66151791 -59.09376919 31.66960452 -59.09765625 39.12109375 C-59.11602539 40.95704102 -59.11602539 40.95704102 -59.13476562 42.83007812 C-59.13669922 44.01537109 -59.13863281 45.20066406 -59.140625 46.421875 C-59.14473389 47.50251221 -59.14884277 48.58314941 -59.15307617 49.6965332 C-58.82746228 53.86799075 -58.07407678 57.47078629 -55.2890625 60.671875 C-54.68964844 61.15011719 -54.09023437 61.62835938 -53.47265625 62.12109375 C-52.87582031 62.61222656 -52.27898437 63.10335937 -51.6640625 63.609375 C-46.36444063 67.23294719 -39.07327308 66.35440331 -33.03515625 65.3125 C-27.97178569 64.11138991 -27.97178569 64.11138991 -24.41015625 60.62109375 C-24.24515625 59.69296875 -24.08015625 58.76484375 -23.91015625 57.80859375 C-23.25015625 55.16859375 -22.59015625 52.52859375 -21.91015625 49.80859375 C-10.36015625 49.80859375 1.18984375 49.80859375 13.08984375 49.80859375 C13.08984375 59.93536503 10.92144596 68.9964174 4.1953125 76.8125 C-10.4376533 90.68531173 -29.35544368 92.40958461 -48.4765625 92.125 C-63.25553538 91.61107966 -75.56429048 87.03365686 -85.83203125 76.28125 C-95.36005076 64.94433956 -97.10496762 54.08868164 -97.22265625 39.68359375 C-97.25166016 38.5234375 -97.28066406 37.36328125 -97.31054688 36.16796875 C-97.38582954 25.81370728 -95.49258275 16.08364421 -88.91015625 7.80859375 C-88.42933594 7.174375 -87.94851562 6.54015625 -87.453125 5.88671875 C-79.3458495 -4.21414909 -68.20991491 -8.49437 -55.69921875 -10.77734375 C-36.44444979 -12.88147314 -16.01246514 -12.05770865 0 0 Z " fill="#DB4C2D" transform="translate(279.91015625,238.19140625)"/>
<path d="M0 0 C6.07214358 3.99954844 9.83204945 9.54246893 12.1171875 16.39453125 C12.6309944 20.95887511 12.59078609 25.5116314 12.56323242 30.10009766 C12.55473366 32.25781105 12.58351437 34.41286045 12.61523438 36.5703125 C12.67035128 47.42998991 10.94136337 55.3883978 3.1171875 63.39453125 C-4.00822587 69.43884742 -10.6877979 70.04867323 -19.8828125 69.39453125 C-26.16454525 68.40075931 -31.07498473 66.49657544 -35.27734375 61.60546875 C-35.80714844 60.87585938 -36.33695312 60.14625 -36.8828125 59.39453125 C-37.46417969 58.60304688 -38.04554688 57.8115625 -38.64453125 56.99609375 C-43.24058999 49.17529449 -43.45052041 41.67814895 -43.5078125 32.76953125 C-43.51868896 31.62581055 -43.52956543 30.48208984 -43.54077148 29.30371094 C-43.39052489 20.28371221 -41.58954136 12.69345355 -36.7578125 5.01953125 C-26.79723886 -4.07490555 -12.28506516 -5.85298559 0 0 Z " fill="#E3DFD9" transform="translate(383.8828125,230.60546875)"/>
<path d="M0 0 C13.2 0 26.4 0 40 0 C40 12.21 40 24.42 40 37 C26.8 37 13.6 37 0 37 C0 24.79 0 12.58 0 0 Z " fill="#DB4C2D" transform="translate(448,291)"/>
<path d="M0 0 C0.33 0 0.66 0 1 0 C1 7.26 1 14.52 1 22 C-6.26 22 -13.52 22 -21 22 C-21 21.67 -21 21.34 -21 21 C-19.80375 20.7525 -18.6075 20.505 -17.375 20.25 C-10.13046613 18.41966724 -5.66903972 14.35474902 -1.8125 8.0625 C-0.7702562 5.4168042 -0.38309969 2.80939772 0 0 Z " fill="#000000" transform="translate(499,478)"/>
<path d="M0 0 C0.33 0 0.66 0 1 0 C1.2475 1.19625 1.495 2.3925 1.75 3.625 C3.58033276 10.86953387 7.64525098 15.33096028 13.9375 19.1875 C16.5831958 20.2297438 19.19060228 20.61690031 22 21 C22 21.33 22 21.66 22 22 C14.74 22 7.48 22 0 22 C0 14.74 0 7.48 0 0 Z " fill="#000000" transform="translate(0,478)"/>
<path d="M0 0 C6.6 0 13.2 0 20 0 C20 7.26 20 14.52 20 22 C19.67 22 19.34 22 19 22 C18.7525 20.80375 18.505 19.6075 18.25 18.375 C16.65322659 12.05490386 13.45439764 7.5949439 8 4 C5.36225397 2.85550312 2.7281722 1.92480414 0 1 C0 0.67 0 0.34 0 0 Z " fill="#000000" transform="translate(480,0)"/>
<path d="M0 0 C6.6 0 13.2 0 20 0 C18.02 0.99 18.02 0.99 16 2 C9.75394704 5.47680682 4.71564473 9.10644031 2 16 C1.61709538 17.99110401 1.27395385 19.99100513 1 22 C0.67 22 0.34 22 0 22 C0 14.74 0 7.48 0 0 Z " fill="#000000" transform="translate(0,0)"/>
<path d="M0 0 C0.33 0 0.66 0 1 0 C0.93433838 1.13526123 0.86867676 2.27052246 0.80102539 3.44018555 C-0.07196955 19.50139938 -0.31083688 35.56633587 -0.53222656 51.6463623 C-0.58339935 55.30789893 -0.63857371 58.96937534 -0.69335938 62.63085938 C-0.79937477 69.75385367 -0.9011345 76.87690256 -1 84 C-1.33 84 -1.66 84 -2 84 C-2 60.9 -2 37.8 -2 14 C-2.66 14.66 -3.32 15.32 -4 16 C-3.27275406 10.47293087 -1.66554027 5.30039859 0 0 Z " fill="#E3D0C9" transform="translate(135,244)"/>
<path d="M0 0 C0.66 0 1.32 0 2 0 C2.69951063 2.413762 3.38483919 4.83010234 4.0625 7.25 C4.26166016 7.93191406 4.46082031 8.61382812 4.66601562 9.31640625 C6.40009269 15.58342161 6.40009269 15.58342161 5 19 C4.67 18.67 4.34 18.34 4 18 C3.34 19.32 2.68 20.64 2 22 C1.09166031 19.27498092 0.81640015 17.37766029 0.68359375 14.55078125 C0.64169922 13.70322266 0.59980469 12.85566406 0.55664062 11.98242188 C0.51732422 11.10134766 0.47800781 10.22027344 0.4375 9.3125 C0.39431641 8.41982422 0.35113281 7.52714844 0.30664062 6.60742188 C0.20064647 4.40509892 0.09857949 2.20266527 0 0 Z " fill="#E1B7AB" transform="translate(55,241)"/>
<path d="M0 0 C0.66 0 1.32 0 2 0 C1.88608368 2.60508636 1.75934452 5.20845546 1.625 7.8125 C1.5940625 8.55048828 1.563125 9.28847656 1.53125 10.04882812 C1.32653852 13.81893115 1.13566173 15.79650741 -1 19 C-1.02690104 16.20826945 -1.04679053 13.41679652 -1.0625 10.625 C-1.07087891 9.8309375 -1.07925781 9.036875 -1.08789062 8.21875 C-1.11328125 2.2265625 -1.11328125 2.2265625 0 0 Z " fill="#DD7159" transform="translate(136,240)"/>
<path d="M0 0 C0.66 0 1.32 0 2 0 C2.95494281 6.57849492 2.8931507 12.41816638 2 19 C1.67 19 1.34 19 1 19 C0.67 12.73 0.34 6.46 0 0 Z " fill="#DF9482" transform="translate(55,241)"/>
<path d="M0 0 C0.66 0.33 1.32 0.66 2 1 C-0.97 3.97 -3.94 6.94 -7 10 C-7 6.04435836 -5.59478606 4.89133304 -3 2 C-2.01 1.34 -1.02 0.68 0 0 Z " fill="#E2BFB4" transform="translate(353,231)"/>
<path d="M0 0 C0.66 0.33 1.32 0.66 2 1 C-1.96 4.465 -1.96 4.465 -6 8 C-6 5 -6 5 -4.6875 3.61328125 C-3.125 2.40885417 -1.5625 1.20442708 0 0 Z " fill="#E1BFB4" transform="translate(229,253)"/>
<path d="M0 0 C0.33 0.66 0.66 1.32 1 2 C1.66 2 2.32 2 3 2 C3 4.97 3 7.94 3 11 C2.67 11 2.34 11 2 11 C1.67 8.69 1.34 6.38 1 4 C0.34 4.66 -0.32 5.32 -1 6 C-0.67 4.02 -0.34 2.04 0 0 Z " fill="#E1BAAE" transform="translate(132,254)"/>
</svg>
